<mxfile host="app.diagrams.net" modified="2023-03-13T08:52:55.334Z" agent="5.0 (Windows)" etag="-xTffofuuTQQnW_a_v6K" version="21.0.6" type="github">
  <diagram name="Page-1" id="1lNvj6sx0Cn6xJkW8Sbm">
    <mxGraphModel dx="2284" dy="764" grid="1" gridSize="10" guides="1" tooltips="1" connect="1" arrows="1" fold="1" page="1" pageScale="1" pageWidth="850" pageHeight="1100" math="0" shadow="0">
      <root>
        <mxCell id="0" />
        <mxCell id="1" parent="0" />
        <mxCell id="3ni_VmzN-J05fCRgzQow-10" value="Read" style="edgeStyle=orthogonalEdgeStyle;rounded=0;orthogonalLoop=1;jettySize=auto;html=1;exitX=0.25;exitY=0;exitDx=0;exitDy=0;entryX=0.25;entryY=1;entryDx=0;entryDy=0;" parent="1" source="3ni_VmzN-J05fCRgzQow-3" target="3ni_VmzN-J05fCRgzQow-5" edge="1">
          <mxGeometry relative="1" as="geometry" />
        </mxCell>
        <mxCell id="3ni_VmzN-J05fCRgzQow-20" value="Pull" style="edgeStyle=orthogonalEdgeStyle;rounded=0;orthogonalLoop=1;jettySize=auto;html=1;exitX=0;exitY=0.75;exitDx=0;exitDy=0;entryX=1;entryY=0.75;entryDx=0;entryDy=0;" parent="1" source="3ni_VmzN-J05fCRgzQow-3" target="3ni_VmzN-J05fCRgzQow-12" edge="1">
          <mxGeometry relative="1" as="geometry" />
        </mxCell>
        <mxCell id="3ni_VmzN-J05fCRgzQow-35" value="&lt;div&gt;Write&lt;/div&gt;" style="edgeStyle=orthogonalEdgeStyle;rounded=0;orthogonalLoop=1;jettySize=auto;html=1;exitX=0.75;exitY=0;exitDx=0;exitDy=0;entryX=0.75;entryY=1;entryDx=0;entryDy=0;" parent="1" source="3ni_VmzN-J05fCRgzQow-3" target="3ni_VmzN-J05fCRgzQow-5" edge="1">
          <mxGeometry relative="1" as="geometry" />
        </mxCell>
        <mxCell id="3ni_VmzN-J05fCRgzQow-3" value="&lt;b&gt;Media Collector&lt;br&gt;&lt;/b&gt;" style="html=1;dropTarget=0;whiteSpace=wrap;" parent="1" vertex="1">
          <mxGeometry x="205" y="700" width="250" height="130" as="geometry" />
        </mxCell>
        <mxCell id="3ni_VmzN-J05fCRgzQow-4" value="" style="shape=module;jettyWidth=8;jettyHeight=4;" parent="3ni_VmzN-J05fCRgzQow-3" vertex="1">
          <mxGeometry x="1" width="20" height="20" relative="1" as="geometry">
            <mxPoint x="-27" y="7" as="offset" />
          </mxGeometry>
        </mxCell>
        <mxCell id="YIlKEnajnwSfVvWJ9b8w-1" value="Read" style="edgeStyle=orthogonalEdgeStyle;rounded=0;orthogonalLoop=1;jettySize=auto;html=1;entryX=0.5;entryY=0;entryDx=0;entryDy=0;" edge="1" parent="1" source="3ni_VmzN-J05fCRgzQow-16" target="3ni_VmzN-J05fCRgzQow-27">
          <mxGeometry relative="1" as="geometry" />
        </mxCell>
        <mxCell id="YIlKEnajnwSfVvWJ9b8w-6" value="Read" style="edgeStyle=orthogonalEdgeStyle;rounded=0;orthogonalLoop=1;jettySize=auto;html=1;entryX=0.25;entryY=0;entryDx=0;entryDy=0;exitX=1;exitY=0.75;exitDx=0;exitDy=0;" edge="1" parent="1" source="3ni_VmzN-J05fCRgzQow-16" target="YIlKEnajnwSfVvWJ9b8w-3">
          <mxGeometry relative="1" as="geometry" />
        </mxCell>
        <mxCell id="YIlKEnajnwSfVvWJ9b8w-7" value="Write" style="edgeStyle=orthogonalEdgeStyle;rounded=0;orthogonalLoop=1;jettySize=auto;html=1;exitX=1;exitY=0.25;exitDx=0;exitDy=0;entryX=0.75;entryY=0;entryDx=0;entryDy=0;" edge="1" parent="1" source="3ni_VmzN-J05fCRgzQow-16" target="YIlKEnajnwSfVvWJ9b8w-3">
          <mxGeometry relative="1" as="geometry" />
        </mxCell>
        <mxCell id="3ni_VmzN-J05fCRgzQow-16" value="&lt;b&gt;Media Presenter&lt;br&gt;&lt;/b&gt;" style="html=1;dropTarget=0;whiteSpace=wrap;" parent="1" vertex="1">
          <mxGeometry x="710" y="20" width="250" height="130" as="geometry" />
        </mxCell>
        <mxCell id="3ni_VmzN-J05fCRgzQow-17" value="" style="shape=module;jettyWidth=8;jettyHeight=4;" parent="3ni_VmzN-J05fCRgzQow-16" vertex="1">
          <mxGeometry x="1" width="20" height="20" relative="1" as="geometry">
            <mxPoint x="-27" y="7" as="offset" />
          </mxGeometry>
        </mxCell>
        <mxCell id="3ni_VmzN-J05fCRgzQow-18" value="" style="group" parent="1" vertex="1" connectable="0">
          <mxGeometry x="-300" y="700" width="250" height="130" as="geometry" />
        </mxCell>
        <mxCell id="3ni_VmzN-J05fCRgzQow-12" value="&lt;b&gt;Media Source&lt;br&gt;&lt;/b&gt;" style="html=1;dropTarget=0;whiteSpace=wrap;" parent="3ni_VmzN-J05fCRgzQow-18" vertex="1">
          <mxGeometry width="250" height="130" as="geometry" />
        </mxCell>
        <mxCell id="3ni_VmzN-J05fCRgzQow-13" value="" style="shape=module;jettyWidth=8;jettyHeight=4;" parent="3ni_VmzN-J05fCRgzQow-12" vertex="1">
          <mxGeometry x="1" width="20" height="20" relative="1" as="geometry">
            <mxPoint x="-27" y="7" as="offset" />
          </mxGeometry>
        </mxCell>
        <mxCell id="3ni_VmzN-J05fCRgzQow-9" value="" style="shape=mxgraph.signs.tech.camera_2;html=1;pointerEvents=1;fillColor=#000000;strokeColor=none;verticalLabelPosition=bottom;verticalAlign=top;align=center;" parent="3ni_VmzN-J05fCRgzQow-18" vertex="1">
          <mxGeometry x="10" y="80" width="50" height="40" as="geometry" />
        </mxCell>
        <mxCell id="3ni_VmzN-J05fCRgzQow-8" value="" style="shape=image;html=1;verticalAlign=top;verticalLabelPosition=bottom;labelBackgroundColor=#ffffff;imageAspect=0;aspect=fixed;image=https://cdn4.iconfinder.com/data/icons/ionicons/512/icon-iphone-128.png" parent="3ni_VmzN-J05fCRgzQow-18" vertex="1">
          <mxGeometry x="10" y="20" width="50" height="50" as="geometry" />
        </mxCell>
        <mxCell id="3ni_VmzN-J05fCRgzQow-19" value="Push" style="edgeStyle=orthogonalEdgeStyle;rounded=0;orthogonalLoop=1;jettySize=auto;html=1;exitX=1;exitY=0.25;exitDx=0;exitDy=0;entryX=0;entryY=0.25;entryDx=0;entryDy=0;" parent="1" source="3ni_VmzN-J05fCRgzQow-12" target="3ni_VmzN-J05fCRgzQow-3" edge="1">
          <mxGeometry relative="1" as="geometry" />
        </mxCell>
        <mxCell id="3ni_VmzN-J05fCRgzQow-25" value="" style="group" parent="1" vertex="1" connectable="0">
          <mxGeometry x="205" y="330" width="250" height="130" as="geometry" />
        </mxCell>
        <mxCell id="3ni_VmzN-J05fCRgzQow-5" value="&lt;b&gt;Media Consumption Area&lt;br&gt;&lt;/b&gt;" style="html=1;dropTarget=0;whiteSpace=wrap;" parent="3ni_VmzN-J05fCRgzQow-25" vertex="1">
          <mxGeometry width="250" height="130" as="geometry" />
        </mxCell>
        <mxCell id="3ni_VmzN-J05fCRgzQow-6" value="" style="shape=module;jettyWidth=8;jettyHeight=4;" parent="3ni_VmzN-J05fCRgzQow-5" vertex="1">
          <mxGeometry x="1" width="20" height="20" relative="1" as="geometry">
            <mxPoint x="-27" y="7" as="offset" />
          </mxGeometry>
        </mxCell>
        <mxCell id="3ni_VmzN-J05fCRgzQow-24" value="" style="shape=datastore;whiteSpace=wrap;html=1;" parent="3ni_VmzN-J05fCRgzQow-25" vertex="1">
          <mxGeometry x="220" y="3" width="25" height="40" as="geometry" />
        </mxCell>
        <mxCell id="3ni_VmzN-J05fCRgzQow-26" value="" style="group" parent="1" vertex="1" connectable="0">
          <mxGeometry x="700" y="330" width="250" height="130" as="geometry" />
        </mxCell>
        <mxCell id="3ni_VmzN-J05fCRgzQow-27" value="&lt;b&gt;Media Repository&lt;br&gt;&lt;/b&gt;" style="html=1;dropTarget=0;whiteSpace=wrap;" parent="3ni_VmzN-J05fCRgzQow-26" vertex="1">
          <mxGeometry width="250" height="130" as="geometry" />
        </mxCell>
        <mxCell id="3ni_VmzN-J05fCRgzQow-28" value="" style="shape=module;jettyWidth=8;jettyHeight=4;" parent="3ni_VmzN-J05fCRgzQow-27" vertex="1">
          <mxGeometry x="1" width="20" height="20" relative="1" as="geometry">
            <mxPoint x="-27" y="7" as="offset" />
          </mxGeometry>
        </mxCell>
        <mxCell id="3ni_VmzN-J05fCRgzQow-29" value="" style="shape=datastore;whiteSpace=wrap;html=1;" parent="3ni_VmzN-J05fCRgzQow-26" vertex="1">
          <mxGeometry x="220" y="3" width="25" height="40" as="geometry" />
        </mxCell>
        <mxCell id="3ni_VmzN-J05fCRgzQow-33" value="read" style="edgeStyle=orthogonalEdgeStyle;rounded=0;orthogonalLoop=1;jettySize=auto;html=1;exitX=0;exitY=0.25;exitDx=0;exitDy=0;entryX=1;entryY=0.25;entryDx=0;entryDy=0;" parent="1" source="3ni_VmzN-J05fCRgzQow-30" target="3ni_VmzN-J05fCRgzQow-5" edge="1">
          <mxGeometry relative="1" as="geometry">
            <Array as="points">
              <mxPoint x="620" y="733" />
              <mxPoint x="620" y="363" />
            </Array>
          </mxGeometry>
        </mxCell>
        <mxCell id="3ni_VmzN-J05fCRgzQow-34" value="write" style="edgeStyle=orthogonalEdgeStyle;rounded=0;orthogonalLoop=1;jettySize=auto;html=1;exitX=0;exitY=0.75;exitDx=0;exitDy=0;entryX=1;entryY=0.75;entryDx=0;entryDy=0;" parent="1" source="3ni_VmzN-J05fCRgzQow-30" target="3ni_VmzN-J05fCRgzQow-5" edge="1">
          <mxGeometry relative="1" as="geometry" />
        </mxCell>
        <mxCell id="YIlKEnajnwSfVvWJ9b8w-8" value="Read" style="edgeStyle=orthogonalEdgeStyle;rounded=0;orthogonalLoop=1;jettySize=auto;html=1;exitX=0.25;exitY=0;exitDx=0;exitDy=0;entryX=0.25;entryY=1;entryDx=0;entryDy=0;" edge="1" parent="1" source="3ni_VmzN-J05fCRgzQow-30" target="3ni_VmzN-J05fCRgzQow-27">
          <mxGeometry x="0.25" y="-37" relative="1" as="geometry">
            <mxPoint x="700" y="520" as="targetPoint" />
            <mxPoint x="1" as="offset" />
          </mxGeometry>
        </mxCell>
        <mxCell id="YIlKEnajnwSfVvWJ9b8w-9" value="Write" style="edgeStyle=orthogonalEdgeStyle;rounded=0;orthogonalLoop=1;jettySize=auto;html=1;exitX=0.75;exitY=0;exitDx=0;exitDy=0;entryX=0.75;entryY=1;entryDx=0;entryDy=0;" edge="1" parent="1" source="3ni_VmzN-J05fCRgzQow-30" target="3ni_VmzN-J05fCRgzQow-27">
          <mxGeometry x="0.25" y="-22" relative="1" as="geometry">
            <mxPoint x="1" as="offset" />
          </mxGeometry>
        </mxCell>
        <mxCell id="YIlKEnajnwSfVvWJ9b8w-14" style="edgeStyle=orthogonalEdgeStyle;rounded=0;orthogonalLoop=1;jettySize=auto;html=1;exitX=0.75;exitY=1;exitDx=0;exitDy=0;entryX=0.25;entryY=0;entryDx=0;entryDy=0;" edge="1" parent="1" source="3ni_VmzN-J05fCRgzQow-30" target="YIlKEnajnwSfVvWJ9b8w-12">
          <mxGeometry relative="1" as="geometry" />
        </mxCell>
        <mxCell id="3ni_VmzN-J05fCRgzQow-30" value="&lt;b&gt;Media Consumer&lt;br&gt;&lt;/b&gt;" style="html=1;dropTarget=0;whiteSpace=wrap;" parent="1" vertex="1">
          <mxGeometry x="700" y="700" width="250" height="130" as="geometry" />
        </mxCell>
        <mxCell id="3ni_VmzN-J05fCRgzQow-31" value="" style="shape=module;jettyWidth=8;jettyHeight=4;" parent="3ni_VmzN-J05fCRgzQow-30" vertex="1">
          <mxGeometry x="1" width="20" height="20" relative="1" as="geometry">
            <mxPoint x="-27" y="7" as="offset" />
          </mxGeometry>
        </mxCell>
        <mxCell id="YIlKEnajnwSfVvWJ9b8w-2" value="" style="group" vertex="1" connectable="0" parent="1">
          <mxGeometry x="1070" y="330" width="250" height="130" as="geometry" />
        </mxCell>
        <mxCell id="YIlKEnajnwSfVvWJ9b8w-3" value="&lt;b&gt;Derived Virtual Media Repository&lt;br&gt;&lt;/b&gt;" style="html=1;dropTarget=0;whiteSpace=wrap;" vertex="1" parent="YIlKEnajnwSfVvWJ9b8w-2">
          <mxGeometry width="250" height="130" as="geometry" />
        </mxCell>
        <mxCell id="YIlKEnajnwSfVvWJ9b8w-4" value="" style="shape=module;jettyWidth=8;jettyHeight=4;" vertex="1" parent="YIlKEnajnwSfVvWJ9b8w-3">
          <mxGeometry x="1" width="20" height="20" relative="1" as="geometry">
            <mxPoint x="-27" y="7" as="offset" />
          </mxGeometry>
        </mxCell>
        <mxCell id="YIlKEnajnwSfVvWJ9b8w-5" value="" style="shape=datastore;whiteSpace=wrap;html=1;" vertex="1" parent="YIlKEnajnwSfVvWJ9b8w-2">
          <mxGeometry x="220" y="3" width="25" height="40" as="geometry" />
        </mxCell>
        <mxCell id="YIlKEnajnwSfVvWJ9b8w-15" style="edgeStyle=orthogonalEdgeStyle;rounded=0;orthogonalLoop=1;jettySize=auto;html=1;exitX=0.25;exitY=1;exitDx=0;exitDy=0;entryX=0.75;entryY=0;entryDx=0;entryDy=0;" edge="1" parent="1" source="YIlKEnajnwSfVvWJ9b8w-10" target="YIlKEnajnwSfVvWJ9b8w-12">
          <mxGeometry relative="1" as="geometry" />
        </mxCell>
        <mxCell id="YIlKEnajnwSfVvWJ9b8w-16" style="edgeStyle=orthogonalEdgeStyle;rounded=0;orthogonalLoop=1;jettySize=auto;html=1;exitX=0.25;exitY=0;exitDx=0;exitDy=0;" edge="1" parent="1" source="YIlKEnajnwSfVvWJ9b8w-10">
          <mxGeometry relative="1" as="geometry">
            <mxPoint x="760" y="460" as="targetPoint" />
            <Array as="points">
              <mxPoint x="1033" y="620" />
              <mxPoint x="760" y="620" />
            </Array>
          </mxGeometry>
        </mxCell>
        <mxCell id="YIlKEnajnwSfVvWJ9b8w-17" style="edgeStyle=orthogonalEdgeStyle;rounded=0;orthogonalLoop=1;jettySize=auto;html=1;exitX=0.75;exitY=0;exitDx=0;exitDy=0;entryX=0.75;entryY=1;entryDx=0;entryDy=0;" edge="1" parent="1" source="YIlKEnajnwSfVvWJ9b8w-10" target="3ni_VmzN-J05fCRgzQow-27">
          <mxGeometry relative="1" as="geometry">
            <mxPoint x="900" y="460" as="targetPoint" />
            <Array as="points">
              <mxPoint x="1158" y="620" />
              <mxPoint x="888" y="620" />
            </Array>
          </mxGeometry>
        </mxCell>
        <mxCell id="YIlKEnajnwSfVvWJ9b8w-10" value="&lt;b&gt;Media Housekeeper&lt;br&gt;&lt;/b&gt;" style="html=1;dropTarget=0;whiteSpace=wrap;" vertex="1" parent="1">
          <mxGeometry x="970" y="700" width="250" height="130" as="geometry" />
        </mxCell>
        <mxCell id="YIlKEnajnwSfVvWJ9b8w-11" value="" style="shape=module;jettyWidth=8;jettyHeight=4;" vertex="1" parent="YIlKEnajnwSfVvWJ9b8w-10">
          <mxGeometry x="1" width="20" height="20" relative="1" as="geometry">
            <mxPoint x="-27" y="7" as="offset" />
          </mxGeometry>
        </mxCell>
        <mxCell id="YIlKEnajnwSfVvWJ9b8w-12" value="&lt;b&gt;Media Analyzer&lt;br&gt;&lt;/b&gt;" style="html=1;dropTarget=0;whiteSpace=wrap;" vertex="1" parent="1">
          <mxGeometry x="830" y="930" width="250" height="130" as="geometry" />
        </mxCell>
        <mxCell id="YIlKEnajnwSfVvWJ9b8w-13" value="" style="shape=module;jettyWidth=8;jettyHeight=4;" vertex="1" parent="YIlKEnajnwSfVvWJ9b8w-12">
          <mxGeometry x="1" width="20" height="20" relative="1" as="geometry">
            <mxPoint x="-27" y="7" as="offset" />
          </mxGeometry>
        </mxCell>
      </root>
    </mxGraphModel>
  </diagram>
</mxfile>
